{"asset":{"version":"2.0","generator":"Blockbench 5.0.7 glTF exporter"},"scenes":[{"nodes":[0,1,2],"name":"blockbench_export"}],"scene":0,"nodes":[{"name":"cube","mesh":0},{"translation":[0,0.25,0],"name":"beveled_cuboid","mesh":1},{"translation":[0,0.125,0],"name":"beveled_cuboid","mesh":2}],"bufferViews":[{"buffer":0,"byteOffset":0,"byteLength":288,"target":34962,"byteStride":12},{"buffer":0,"byteOffset":288,"byteLength":288,"target":34962,"byteStride":12},{"buffer":0,"byteOffset":576,"byteLength":192,"target":34962,"byteStride":8},{"buffer":0,"byteOffset":768,"byteLength":72,"target":34963},{"buffer":0,"byteOffset":840,"byteLength":1152,"target":34962,"byteStride":12},{"buffer":0,"byteOffset":1992,"byteLength":1152,"target":34962,"byteStride":12},{"buffer":0,"byteOffset":3144,"byteLength":768,"target":34962,"byteStride":8},{"buffer":0,"byteOffset":3912,"byteLength":264,"target":34963},{"buffer":0,"byteOffset":4176,"byteLength":1152,"target":34962,"byteStride":12},{"buffer":0,"byteOffset":5328,"byteLength":1152,"target":34962,"byteStride":12},{"buffer":0,"byteOffset":6480,"byteLength":768,"target":34962,"byteStride":8},{"buffer":0,"byteOffset":7248,"byteLength":264,"target":34963}],"buffers":[{"byteLength":7512,"uri":"data:application/octet-stream;base64,"}],"accessors":[{"bufferView":0,"componentType":5126,"count":24,"max":[0.5,0.125,0.5],"min":[-0.5,0,-0.5],"type":"VEC3"},{"bufferView":1,"componentType":5126,"count":24,"max":[1,1,1],"min":[-1,-1,-1],"type":"VEC3"},{"bufferView":2,"componentType":5126,"count":24,"max":[0.75,0.515625],"min":[0,0],"type":"VEC2"},{"bufferView":3,"componentType":5123,"count":36,"max":[23],"min":[0],"type":"SCALAR"},{"bufferView":4,"componentType":5126,"count":96,"max":[0.4375,0.125,0.4375],"min":[-0.4375,0,-0.4375],"type":"VEC3"},{"bufferView":5,"componentType":5126,"count":96,"max":[1,1,0.7525767087936401],"min":[-0.7525767087936401,-1,-0.7525767087936401],"type":"VEC3"},{"bufferView":6,"componentType":5126,"count":96,"max":[0.859375,0.7082613706588745],"min":[0,0],"type":"VEC2"},{"bufferView":7,"componentType":5123,"count":132,"max":[95],"min":[0],"type":"SCALAR"},{"bufferView":8,"componentType":5126,"count":96,"max":[0.5,0.125,0.5],"min":[-0.5,0,-0.5],"type":"VEC3"},{"bufferView":9,"componentType":5126,"count":96,"max":[1,1,0.7071067690849304],"min":[-0.7071067690849304,-1,-0.7071067690849304],"type":"VEC3"},{"bufferView":10,"componentType":5126,"count":96,"max":[0.7613237500190735,0.546875],"min":[0,0],"type":"VEC2"},{"bufferView":11,"componentType":5123,"count":132,"max":[95],"min":[0],"type":"SCALAR"}],"materials":[{"pbrMetallicRoughness":{"metallicFactor":0,"roughnessFactor":1,"baseColorTexture":{"index":0}},"alphaMode":"MASK","alphaCutoff":0.05,"doubleSided":true}],"textures":[{"sampler":0,"source":0,"name":"PB_texture.png"}],"samplers":[{"magFilter":9728,"minFilter":9728,"wrapS":33071,"wrapT":33071}],"images":[{"mimeType":"image/png","uri":"data:image/png;base64,"}],"meshes":[{"primitives":[{"mode":4,"attributes":{"POSITION":0,"NORMAL":1,"TEXCOORD_0":2},"indices":3,"material":0}]},{"primitives":[{"mode":4,"attributes":{"POSITION":4,"NORMAL":5,"TEXCOORD_0":6},"indices":7,"material":0}]},{"primitives":[{"mode":4,"attributes":{"POSITION":8,"NORMAL":9,"TEXCOORD_0":10},"indices":11,"material":0}]}]}