{"asset":{"version":"2.0","generator":"Blockbench 5.0.7 glTF exporter"},"scenes":[{"nodes":[0],"name":"blockbench_export"}],"scene":0,"nodes":[{"name":"mesh","mesh":0}],"bufferViews":[{"buffer":0,"byteOffset":0,"byteLength":2064,"target":34962,"byteStride":12},{"buffer":0,"byteOffset":2064,"byteLength":2064,"target":34962,"byteStride":12},{"buffer":0,"byteOffset":4128,"byteLength":1376,"target":34962,"byteStride":8},{"buffer":0,"byteOffset":5504,"byteLength":468,"target":34963}],"buffers":[{"byteLength":5972,"uri":"data:application/octet-stream;base64,"}],"accessors":[{"bufferView":0,"componentType":5126,"count":172,"max":[0.5,0.28125,0.25],"min":[-0.4375,0.21875,-0.25],"type":"VEC3"},{"bufferView":1,"componentType":5126,"count":172,"max":[0.8944271802902222,1,1],"min":[-1,0,-0.8944271802902222],"type":"VEC3"},{"bufferView":2,"componentType":5126,"count":172,"max":[0.9668421745300293,0.59375],"min":[0,0],"type":"VEC2"},{"bufferView":3,"componentType":5123,"count":234,"max":[171],"min":[0],"type":"SCALAR"}],"materials":[{"pbrMetallicRoughness":{"metallicFactor":0,"roughnessFactor":1,"baseColorTexture":{"index":0}},"alphaMode":"MASK","alphaCutoff":0.05,"doubleSided":true}],"textures":[{"sampler":0,"source":0,"name":"Wood_Shard_texture"}],"samplers":[{"magFilter":9728,"minFilter":9728,"wrapS":33071,"wrapT":33071}],"images":[{"mimeType":"image/png","uri":"data:image/png;base64,"}],"meshes":[{"primitives":[{"mode":4,"attributes":{"POSITION":0,"NORMAL":1,"TEXCOORD_0":2},"indices":3,"material":0}]}]}